<?xml version="1.0" standalone="no"?>
<!DOCTYPE svg PUBLIC "-//W3C//DTD SVG 20010904//EN"
 "http://www.w3.org/TR/2001/REC-SVG-20010904/DTD/svg10.dtd">
<svg version="1.0" xmlns="http://www.w3.org/2000/svg"
 width="260.000000pt" height="260.000000pt" viewBox="0 0 260.000000 260.000000"
 preserveAspectRatio="xMidYMid meet">
<metadata>
Created by potrace 1.11, written by Peter Selinger 2001-2013
</metadata>
<g transform="translate(0.000000,260.000000) scale(0.100000,-0.100000)"
fill="#000000" stroke="none">
<path d="M1227 2334 c-1 -1 -24 -5 -52 -8 -173 -19 -367 -116 -500 -250 -44
-45 -98 -108 -120 -141 -231 -351 -185 -816 109 -1118 99 -102 225 -178 374
-226 96 -32 92 -27 194 -211 l37 -66 -54 -1 c-37 0 -53 3 -49 11 3 6 -1 3 -9
-7 -10 -11 -18 -14 -22 -8 -3 6 -16 9 -28 7 -12 -2 -28 1 -35 7 -9 7 -11 6 -6
-8 6 -14 4 -16 -7 -9 -20 12 -40 14 -33 3 6 -10 -9 -12 -20 -2 -3 4 -15 7 -25
8 -13 1 -17 -3 -13 -13 3 -10 0 -13 -9 -10 -8 3 -13 14 -11 24 3 16 1 15 -13
-4 -11 -15 -23 -21 -34 -17 -12 5 -13 4 -4 -6 9 -9 16 -9 26 -1 10 9 16 9 25
0 8 -8 15 -8 26 1 8 7 16 8 19 4 3 -5 21 -8 41 -7 21 1 36 -3 36 -10 0 -7 4
-6 9 3 6 9 10 10 16 2 5 -9 11 -9 22 0 12 10 16 10 24 -2 6 -10 9 -10 9 -1 0
6 5 12 11 12 5 0 7 -5 3 -11 -3 -6 6 -3 22 7 24 16 27 16 16 2 -11 -14 -11
-16 2 -14 9 1 19 5 22 9 11 10 26 8 19 -2 -6 -10 27 -7 45 4 6 3 10 0 10 -7 0
-10 2 -10 9 1 6 9 10 10 16 2 5 -9 10 -9 21 0 11 9 14 8 14 -2 0 -11 2 -11 10
1 9 13 10 13 10 0 0 -12 2 -12 9 -1 6 9 11 10 15 3 9 -15 37 -3 30 12 -3 6 1
3 9 -6 11 -14 16 -15 26 -5 9 9 14 9 21 -3 9 -14 11 -13 14 9 0 5 5 13 9 18 5
4 7 1 5 -7 -2 -10 3 -14 15 -12 10 2 25 -2 33 -9 11 -9 15 -8 20 5 5 14 9 14
22 4 11 -9 13 -9 9 -1 -4 6 -3 14 3 18 5 3 10 2 10 -4 0 -6 7 -7 17 -4 12 5
14 3 8 -7 -5 -9 -4 -11 4 -6 6 4 9 11 6 15 -8 13 -44 20 -51 10 -3 -6 -12 -5
-22 3 -12 10 -14 10 -8 1 4 -7 2 -13 -3 -13 -6 0 -11 6 -11 13 0 9 -2 9 -9 -1
-7 -11 -9 -10 -14 3 -5 12 -11 14 -26 6 -10 -6 -21 -7 -25 -4 -3 3 -6 1 -6 -6
0 -7 -5 -9 -10 -6 -6 4 -8 11 -5 16 4 5 -3 5 -18 0 -13 -5 -30 -6 -37 -1 -7 5
-25 4 -38 -1 -37 -14 -46 8 -20 51 11 19 40 70 65 113 48 83 54 88 124 105 26
7 69 22 95 34 27 12 52 22 56 22 4 1 13 7 19 14 7 6 17 12 22 12 18 0 137 91
193 148 79 80 143 177 192 292 28 64 31 77 48 170 4 19 8 44 11 55 5 26 4 194
-1 220 -2 11 -7 40 -11 64 -17 101 -95 282 -146 337 -10 11 -19 24 -19 30 0
10 -137 144 -186 182 -79 62 -270 139 -387 158 -41 6 -205 13 -210 8z m304
-2037 c-10 -9 -11 -8 -5 6 3 10 9 15 12 12 3 -3 0 -11 -7 -18z m-420 -10 c-10
-9 -11 -8 -5 6 3 10 9 15 12 12 3 -3 0 -11 -7 -18z m359 13 c0 -5 -2 -10 -4
-10 -3 0 -8 5 -11 10 -3 6 -1 10 4 10 6 0 11 -4 11 -10z"/>
<path d="M1670 316 c0 -2 7 -9 15 -16 13 -11 14 -10 9 4 -5 14 -24 23 -24 12z"/>
<path d="M850 299 c0 -5 5 -7 10 -4 6 3 10 8 10 11 0 2 -4 4 -10 4 -5 0 -10
-5 -10 -11z"/>
</g>
</svg>
